

<svg width="300" height="63" viewBox="0 0 300 63" fill="none" xmlns="http://www.w3.org/2000/svg">
<g clipPath="url(#clip0_483_8590)">
<path d="M0 13.1052H9.82259L18.4744 37.0554C19.5538 40.1717 20.5419 43.4709 21.6213 46.6786H21.9202C22.9996 43.4709 23.9296 40.1717 25.0007 37.0554L33.4782 13.1052H43.3008V62.1108H35.3381V39.6897C35.3381 35.1606 36.0272 28.6454 36.4424 24.108H36.1435L32.1912 35.493L24.1372 57.5069H18.9892L10.902 35.493L7.00783 24.108H6.70892C7.12408 28.6454 7.81324 35.1689 7.81324 39.6897V62.1108H0V13.1052Z" fill="#197BFF"/>
<path d="M50.8086 43.7286C50.8086 31.7701 59.1034 24.3989 67.7553 24.3989C77.6941 24.3989 82.9417 31.5956 82.9417 41.8754C82.9417 43.5208 82.759 45.1745 82.568 46.0721H59.228C59.9503 52.6039 64.1434 56.3186 70.0718 56.3186C73.2187 56.3186 75.9089 55.3297 78.6074 53.651L81.5384 59.0194C78.0345 61.3878 73.6007 63.0083 68.9343 63.0083C58.7796 63.0083 50.8169 55.8781 50.8169 43.7369L50.8086 43.7286ZM75.4855 40.1967C75.4855 34.5291 72.9696 31.0887 67.9379 31.0887C63.6535 31.0887 59.8839 34.2964 59.1366 40.1967H75.4855Z" fill="#197BFF"/>
<path d="M87.1484 43.7285C87.1484 31.7368 94.6628 24.3989 102.717 24.3989L112.033 24.6731V13.1052H120.66V62.1108H113.594C113.594 62.1108 106.196 62.1772 102.244 62.1772C93.0769 62.1772 87.1484 55.8781 87.1484 43.7368V43.7285ZM112.033 55.8864V32.0941C112.033 32.0941 107.034 31.529 104.543 31.529C99.8688 31.529 96.0079 35.9667 96.0079 43.6371C96.0079 51.3074 99.0634 55.8615 104.361 55.8615C107.209 55.8615 112.025 55.8781 112.025 55.8781L112.033 55.8864Z" fill="#197BFF"/>
<path d="M120.602 13.1052H130.424L139.076 37.0554C140.155 40.1717 141.143 43.4709 142.223 46.6786H142.522C143.601 43.4709 144.531 40.1717 145.602 37.0554L154.08 13.1052H163.902V62.1108H155.94V39.6897C155.94 35.1606 156.629 28.6454 157.044 24.108H156.745L152.793 35.493L144.739 57.5069H139.591L131.504 35.493L127.609 24.108H127.31C127.726 28.6454 128.415 35.1689 128.415 39.6897V62.1108H120.602V13.1052Z" fill="#40A133"/>
<path d="M201.543 25.2965H208.609C208.609 25.2965 216.547 25.23 221.579 25.23C229.459 25.23 232.896 29.7341 232.896 39.025V62.1026H224.269V40.1303C224.269 34.0721 222.534 31.7951 218.548 31.7951C215.31 31.7951 210.162 32.2272 210.162 32.2272V62.0942H201.535V25.2965H201.543Z" fill="#40A133"/>
<path d="M235.926 43.7286C235.926 31.4709 244.578 24.3989 254.375 24.3989C259.05 24.3989 262.463 26.1939 265.128 28.5374L260.935 34.1385C258.992 32.4266 257.132 31.4377 254.824 31.4377C248.895 31.4377 244.794 36.3491 244.794 43.7286C244.794 51.1081 248.837 55.9529 254.558 55.9529C257.431 55.9529 260.071 54.5485 262.164 52.7784L265.668 58.471C262.222 61.5291 257.854 63 253.661 63C243.631 63 235.934 55.928 235.934 43.7286H235.926Z" fill="#40A133"/>
<path d="M268.649 12.4985H277.276V24.5318C277.276 24.5318 283.653 24.3988 288.684 24.3988C296.564 24.3988 300.001 29.734 300.001 39.0248V62.1024H291.375V40.1301C291.375 34.0719 289.639 31.7949 285.654 31.7949C282.424 31.7949 277.268 32.2271 277.268 32.2271V62.0941H268.641V12.4985H268.649Z" fill="#40A133"/>
<path d="M188.449 38.1275C188.126 34.5624 186.432 31.7369 181.824 31.7369C178.17 31.7369 174.724 33.3824 171.494 35.3602L168.323 29.6095C172.366 27.0583 177.572 24.7812 183.418 24.7812C192.609 24.7812 197.134 30.4488 197.134 40.6954V62.4849H190.069C190.069 62.4849 182.106 62.5513 177.763 62.5513C171.328 62.5513 166.895 59.0029 166.895 52.5957C166.895 44.9087 173.105 40.8117 187.42 39.1081L187.611 44.4682C178.336 45.7646 175.214 48.3325 175.214 51.9308C175.214 55.1801 177.431 56.6095 180.512 56.6095C183.592 56.6095 188.508 55.9447 188.508 55.9447V44.9253L188.458 38.1275H188.449Z" fill="#40A133"/>
<path d="M279.718 10.6122L273.183 10.4958L266.641 10.3795L273.358 0L279.718 10.6122Z" fill="#40A133"/>
<path d="M275.33 60.3075H270.348V58.6455H275.33V60.3075ZM275.33 56.3186H270.348V54.6565H275.33V56.3186ZM275.33 52.3297H270.348V50.6676H275.33V52.3297ZM275.33 48.3324H270.348V46.6704H275.33V48.3324ZM275.33 44.3518H270.348V42.6898H275.33V44.3518ZM275.33 40.3629H270.348V38.7009H275.33V40.3629ZM275.33 36.374H270.348V34.7119H275.33V36.374ZM275.33 32.3851H270.348V30.723H275.33V32.3851ZM275.33 28.3878H270.348V26.7258H275.33V28.3878ZM275.33 24.4072H270.348V22.7452H275.33V24.4072ZM275.33 20.4183H270.348V18.7563H275.33V20.4183ZM275.33 16.4294H270.348V14.7673H275.33V16.4294Z" fill="white"/>
</g>
<defs>
<clipPath id="clip0_483_8590">
<rect width="300" height="63" fill="white"/>
</clipPath>
</defs>
</svg>
